<svg width="35" height="35" viewBox="0 0 35 35" fill="none" xmlns="http://www.w3.org/2000/svg">
<rect opacity="0.06" x="0.692383" y="0.846191" width="33.4615" height="33.4615" rx="16.7308" fill="#000"/>
<path d="M23.3258 11.0974C23.2525 11.0974 23.1791 11.0791 23.115 11.0424C21.355 10.1349 19.8333 9.74992 18.0091 9.74992C16.1941 9.74992 14.4708 10.1808 12.9033 11.0424C12.6833 11.1616 12.4083 11.0791 12.28 10.8591C12.1608 10.6391 12.2433 10.3549 12.4633 10.2358C14.1683 9.30992 16.0383 8.83325 18.0091 8.83325C19.9616 8.83325 21.6666 9.26409 23.5366 10.2266C23.7658 10.3458 23.8483 10.6208 23.7291 10.8408C23.6466 11.0058 23.4908 11.0974 23.3258 11.0974V11.0974ZM10.2083 15.9099C10.1166 15.9099 10.025 15.8824 9.94247 15.8274C9.73163 15.6808 9.6858 15.3966 9.83247 15.1858C10.74 13.9024 11.895 12.8941 13.27 12.1883C16.1483 10.7033 19.8333 10.6941 22.7208 12.1791C24.0958 12.8849 25.2508 13.8841 26.1583 15.1583C26.305 15.3599 26.2591 15.6533 26.0483 15.7999C25.8375 15.9466 25.5533 15.9008 25.4066 15.6899C24.5816 14.5349 23.5366 13.6274 22.2991 12.9949C19.6683 11.6474 16.3041 11.6474 13.6825 13.0041C12.4358 13.6458 11.3908 14.5624 10.5658 15.7174C10.4925 15.8458 10.355 15.9099 10.2083 15.9099V15.9099ZM15.9375 26.9741C15.8183 26.9741 15.6991 26.9283 15.6166 26.8366C14.8191 26.0391 14.3883 25.5258 13.7741 24.4166C13.1416 23.2891 12.8116 21.9141 12.8116 20.4383C12.8116 17.7158 15.14 15.4974 18 15.4974C20.86 15.4974 23.1883 17.7158 23.1883 20.4383C23.1883 20.6949 22.9866 20.8966 22.73 20.8966C22.4733 20.8966 22.2716 20.6949 22.2716 20.4383C22.2716 18.2199 20.3558 16.4141 18 16.4141C15.6441 16.4141 13.7283 18.2199 13.7283 20.4383C13.7283 21.7583 14.0216 22.9774 14.5808 23.9674C15.1675 25.0216 15.5708 25.4708 16.2766 26.1858C16.4508 26.3691 16.4508 26.6533 16.2766 26.8366C16.1758 26.9283 16.0566 26.9741 15.9375 26.9741ZM22.51 25.2783C21.4191 25.2783 20.4566 25.0033 19.6683 24.4624C18.3025 23.5366 17.4866 22.0333 17.4866 20.4383C17.4866 20.1816 17.6883 19.9799 17.945 19.9799C18.2016 19.9799 18.4033 20.1816 18.4033 20.4383C18.4033 21.7308 19.0633 22.9499 20.1816 23.7016C20.8325 24.1416 21.5933 24.3524 22.51 24.3524C22.73 24.3524 23.0966 24.3249 23.4633 24.2608C23.7108 24.2149 23.9491 24.3799 23.995 24.6366C24.0408 24.8841 23.8758 25.1224 23.6191 25.1683C23.0966 25.2691 22.6383 25.2783 22.51 25.2783V25.2783ZM20.6675 27.1666C20.6308 27.1666 20.585 27.1574 20.5483 27.1483C19.0908 26.7449 18.1375 26.2041 17.1383 25.2233C15.855 23.9491 15.1491 22.2533 15.1491 20.4383C15.1491 18.9533 16.4141 17.7433 17.9725 17.7433C19.5308 17.7433 20.7958 18.9533 20.7958 20.4383C20.7958 21.4191 21.6483 22.2166 22.7025 22.2166C23.7566 22.2166 24.6091 21.4191 24.6091 20.4383C24.6091 16.9824 21.63 14.1774 17.9633 14.1774C15.36 14.1774 12.9766 15.6258 11.9041 17.8716C11.5466 18.6141 11.3633 19.4849 11.3633 20.4383C11.3633 21.1533 11.4275 22.2808 11.9775 23.7474C12.0691 23.9858 11.95 24.2516 11.7116 24.3341C11.4733 24.4258 11.2075 24.2974 11.125 24.0683C10.6758 22.8674 10.4558 21.6758 10.4558 20.4383C10.4558 19.3383 10.6666 18.3391 11.0791 17.4683C12.2983 14.9108 15.0025 13.2516 17.9633 13.2516C22.1341 13.2516 25.5258 16.4691 25.5258 20.4291C25.5258 21.9141 24.2608 23.1241 22.7025 23.1241C21.1441 23.1241 19.8791 21.9141 19.8791 20.4291C19.8791 19.4483 19.0266 18.6508 17.9725 18.6508C16.9183 18.6508 16.0658 19.4483 16.0658 20.4291C16.0658 21.9966 16.6708 23.4633 17.78 24.5633C18.6508 25.4249 19.485 25.9016 20.7775 26.2591C21.025 26.3233 21.1625 26.5799 21.0983 26.8183C21.0525 27.0291 20.86 27.1666 20.6675 27.1666V27.1666Z" fill="#000"/>
</svg>
