<svg width="34" height="28" viewBox="0 0 34 28" fill="none" xmlns="http://www.w3.org/2000/svg">
<path d="M31 27.9H3C1.3 27.9 0 26.6 0 24.9V6.9C0 5.2 1.3 3.9 3 3.9H9C9.2 3.9 9.5 3.7 9.6 3.6L10.7 1.4C11.1 0.6 12.1 0 13 0H21C21.9 0 22.9 0.6 23.3 1.4L24.4 3.6C24.5 3.8 24.8 3.9 25 3.9H31C32.7 3.9 34 5.2 34 6.9V24.9C34 26.6 32.7 27.9 31 27.9V27.9ZM3 5.9C2.4 5.9 2 6.3 2 6.9V24.9C2 25.5 2.4 25.9 3 25.9H31C31.6 25.9 32 25.5 32 24.9V6.9C32 6.3 31.6 5.9 31 5.9H25C24.1 5.9 23.1 5.3 22.7 4.5L21.6 2.3C21.5 2.1 21.2 1.9 21 1.9H13C12.8 1.9 12.5 2.1 12.4 2.2L11.3 4.4C10.9 5.3 9.9 5.9 9 5.9H3V5.9Z" fill="#000"/>
<path d="M17 23.9C12 23.9 8 19.9 8 14.9C8 9.89999 12 5.89999 17 5.89999C22 5.89999 26 9.89999 26 14.9C26 19.9 22 23.9 17 23.9ZM17 7.89999C13.1 7.89999 10 11 10 14.9C10 18.8 13.1 21.9 17 21.9C20.9 21.9 24 18.8 24 14.9C24 11 20.9 7.89999 17 7.89999Z" fill="#000"/>
<path d="M27 8.89999C27.5523 8.89999 28 8.45228 28 7.89999C28 7.34771 27.5523 6.89999 27 6.89999C26.4477 6.89999 26 7.34771 26 7.89999C26 8.45228 26.4477 8.89999 27 8.89999Z" fill="#000"/>
<path d="M4 1.89999H8V2.89999H4V1.89999ZM17 10.9V9.89999C14.2 9.89999 12 12.1 12 14.9H13C13 12.7 14.8 10.9 17 10.9Z" fill="#000"/>
</svg>
