<svg width="12" height="20" viewBox="0 0 12 20" fill="none" xmlns="http://www.w3.org/2000/svg">
<path d="M4 20C3.45 20 2.97933 19.8043 2.588 19.413C2.196 19.021 2 18.55 2 18V9L0 6V2C0 1.45 0.196 0.979 0.588 0.587C0.979333 0.195667 1.45 0 2 0H10C10.55 0 11.021 0.195667 11.413 0.587C11.8043 0.979 12 1.45 12 2V6L10 9V18C10 18.55 9.80433 19.021 9.413 19.413C9.021 19.8043 8.55 20 8 20H4ZM6 13.5C5.58333 13.5 5.22933 13.354 4.938 13.062C4.646 12.7707 4.5 12.4167 4.5 12C4.5 11.5833 4.646 11.2293 4.938 10.938C5.22933 10.646 5.58333 10.5 6 10.5C6.41667 10.5 6.77067 10.646 7.062 10.938C7.354 11.2293 7.5 11.5833 7.5 12C7.5 12.4167 7.354 12.7707 7.062 13.062C6.77067 13.354 6.41667 13.5 6 13.5ZM2 3H10V2H2V3ZM10 5H2V5.4L4 8.4V18H8V8.4L10 5.4V5Z" fill="#000"/>
</svg>
