<svg width="14" height="14" viewBox="0 0 14 14" fill="none" xmlns="http://www.w3.org/2000/svg">
<path d="M13.8151 8.77952L12.734 7.90445C12.7852 7.60756 12.8116 7.30441 12.8116 7.00127C12.8116 6.69812 12.7852 6.39497 12.734 6.09808L13.8151 5.22302C13.8967 5.15693 13.955 5.06891 13.9825 4.97066C14.0099 4.8724 14.0051 4.76858 13.9686 4.67298L13.9538 4.63235C13.6562 3.84484 13.2105 3.1148 12.6383 2.47752L12.6086 2.4447C12.5392 2.36743 12.4467 2.31189 12.3432 2.28539C12.2398 2.25889 12.1303 2.26268 12.0292 2.29625L10.6873 2.74785C10.1922 2.36345 9.63923 2.0603 9.04173 1.84778L8.7826 0.519567C8.76305 0.419626 8.71184 0.327683 8.63578 0.255952C8.55971 0.184221 8.4624 0.136098 8.35675 0.117977L8.31219 0.110164C7.45225 -0.0367213 6.54775 -0.0367213 5.68781 0.110164L5.64325 0.117977C5.5376 0.136098 5.44029 0.184221 5.36422 0.255952C5.28816 0.327683 5.23695 0.419626 5.2174 0.519567L4.95662 1.85403C4.36388 2.06659 3.8119 2.36958 3.32257 2.75097L1.97076 2.29625C1.86969 2.26241 1.76014 2.25849 1.65666 2.285C1.55317 2.31152 1.46066 2.36722 1.39142 2.4447L1.36171 2.47752C0.7902 3.11525 0.344599 3.84517 0.0462188 4.63235L0.0313638 4.67298C-0.0429111 4.86831 0.0181594 5.08707 0.184865 5.22302L1.27918 6.10746C1.22802 6.40123 1.20326 6.70125 1.20326 6.9997C1.20326 7.29972 1.22802 7.59975 1.27918 7.89195L0.184865 8.77639C0.103321 8.84248 0.0449586 8.9305 0.0175388 9.02875C-0.00988098 9.12701 -0.00505895 9.23083 0.0313638 9.32643L0.0462188 9.36706C0.344969 10.1546 0.787317 10.8812 1.36171 11.5219L1.39142 11.5547C1.46083 11.632 1.55335 11.6875 1.65677 11.714C1.76019 11.7405 1.86966 11.7367 1.97076 11.7032L3.32257 11.2484C3.81443 11.6313 4.36407 11.9344 4.95662 12.1454L5.2174 13.4798C5.23695 13.5798 5.28816 13.6717 5.36422 13.7435C5.44029 13.8152 5.5376 13.8633 5.64325 13.8814L5.68781 13.8892C6.55565 14.0369 7.44435 14.0369 8.31219 13.8892L8.35675 13.8814C8.4624 13.8633 8.55971 13.8152 8.63578 13.7435C8.71184 13.6717 8.76305 13.5798 8.7826 13.4798L9.04173 12.1516C9.63899 11.9397 10.195 11.6355 10.6873 11.2516L12.0292 11.7032C12.1303 11.737 12.2399 11.7409 12.3433 11.7144C12.4468 11.6879 12.5393 11.6322 12.6086 11.5547L12.6383 11.5219C13.2127 10.8797 13.655 10.1546 13.9538 9.36706L13.9686 9.32643C14.0429 9.13423 13.9818 8.91546 13.8151 8.77952V8.77952ZM11.5621 6.28247C11.6034 6.51842 11.6249 6.76063 11.6249 7.00283C11.6249 7.24503 11.6034 7.48724 11.5621 7.72319L11.4532 8.3498L12.6862 9.3483C12.4992 9.75597 12.2633 10.1419 11.983 10.4984L10.4513 9.98429L9.93303 10.3874C9.53855 10.6937 9.0995 10.9344 8.62414 11.1031L7.99528 11.3266L7.69983 12.8423C7.23367 12.8923 6.76303 12.8923 6.29686 12.8423L6.00142 11.3234L5.37751 11.0969C4.9071 10.9281 4.4697 10.6875 4.07852 10.3828L3.56025 9.97804L2.01863 10.4968C1.73804 10.139 1.50366 9.75302 1.31549 9.34674L2.56166 8.33886L2.45438 7.71382C2.41476 7.48099 2.39331 7.24035 2.39331 7.00283C2.39331 6.76375 2.41311 6.52467 2.45438 6.29184L2.56166 5.6668L1.31549 4.65892C1.50201 4.25108 1.73804 3.86667 2.01863 3.50884L3.56025 4.02762L4.07852 3.62291C4.4697 3.3182 4.9071 3.07756 5.37751 2.9088L6.00307 2.68534L6.29851 1.16649C6.76232 1.11648 7.23603 1.11648 7.70149 1.16649L7.99693 2.68222L8.6258 2.90567C9.0995 3.07443 9.5402 3.31507 9.93468 3.62134L10.453 4.0245L11.9847 3.5104C12.2653 3.86824 12.4996 4.2542 12.6878 4.66048L11.4548 5.65899L11.5621 6.28247ZM7.00165 4.09638C5.39731 4.09638 4.09668 5.32771 4.09668 6.84657C4.09668 8.36542 5.39731 9.59676 7.00165 9.59676C8.60599 9.59676 9.90662 8.36542 9.90662 6.84657C9.90662 5.32771 8.60599 4.09638 7.00165 4.09638ZM8.30889 8.08416C8.13743 8.24694 7.93367 8.37603 7.70932 8.46399C7.48498 8.55195 7.24447 8.59705 7.00165 8.59669C6.50814 8.59669 6.04433 8.41387 5.69441 8.08416C5.52246 7.92183 5.38611 7.72893 5.2932 7.51654C5.20029 7.30414 5.15265 7.07645 5.15303 6.84657C5.15303 6.37935 5.34615 5.94026 5.69441 5.60898C6.04433 5.27771 6.50814 5.09645 7.00165 5.09645C7.49517 5.09645 7.95897 5.27771 8.30889 5.60898C8.48084 5.7713 8.61719 5.96421 8.7101 6.1766C8.80301 6.38899 8.85065 6.61668 8.85027 6.84657C8.85027 7.31379 8.65716 7.75288 8.30889 8.08416Z" fill="#000"/>
</svg>
